<?xml version="1.0" encoding="utf-8"?>
<svg xmlns="http://www.w3.org/2000/svg" viewBox="-57 -36.692 713.063 590.692">
  <desc>
			Created with Pixso.
	</desc>
  <path id="Star 1" d="M 254.504 159.968 L 60.047 98.204 L 201.827 244.925 L 32.295 358.459 L 235.407 339.095 L 218.457 542.424 L 329.959 371.551 L 478.362 511.567 L 414.286 317.853 L 616.295 289.132 L 424.892 218.454 L 528.378 42.607 L 353.78 148.177 L 280.831 -42.36 L 254.504 159.968 Z M 281.326 -38.181 L 255.37 161.32 L 63.626 100.421 L 203.426 245.101 L 36.256 357.035 L 236.532 337.95 L 219.829 538.442 L 329.773 369.951 L 476.103 508.018 L 412.924 317.007 L 612.106 288.688 L 423.375 218.989 L 525.416 45.6 L 353.264 149.703 L 281.326 -38.181 Z" fill="#BCEC30" fill-opacity="1.000000" fill-rule="evenodd" style="transform-box: fill-box; transform-origin: 50% 50%;" transform="matrix(0.785857, 0.618408, -0.618408, 0.785857, -0.000002, -0.000002)"/>
</svg>